<?xml version="1.0" encoding="utf-8"?>
<!-- Generator: Adobe Illustrator 24.1.0, SVG Export Plug-In . SVG Version: 6.00 Build 0)  -->
<svg version="1.1" id="Layer_1" xmlns="http://www.w3.org/2000/svg" xmlns:xlink="http://www.w3.org/1999/xlink" x="0px" y="0px"
	 viewBox="0 0 1602.2 552.7" style="enable-background:new 0 0 1602.2 552.7;" xml:space="preserve">
<style type="text/css">
	.st0{fill-rule:evenodd;clip-rule:evenodd;fill:#EABC4D;}
	.st1{fill-rule:evenodd;clip-rule:evenodd;fill:#DDDDDD;}
	.st2{fill-rule:evenodd;clip-rule:evenodd;fill:#F2D747;}
	.st3{fill:none;}
	.st4{enable-background:new    ;}
	.st5{fill:#CECECE;}
	.st6{fill:#EABC4D;}
</style>
<g>
	<path class="st0" d="M1104.6,278.9h-38.1v18.5l37.6,16.7L1104.6,278.9L1104.6,278.9z"/>
	<path class="st1" d="M1065.3,425.1h38.2l0.6-77c-9.6-5.4-23.3-9.6-38.2-16.7L1065.3,425.1z"/>
	<path class="st1" d="M178.6,312.3c-8.4-4.8-21.5-7.2-30.4-7.2c-28,0-48.3,18.5-48.3,46.5c0,26.2,16.1,47.1,44.1,47.1
		c14.9,0,20.9-3.6,32.8-7.2l11.3,26.9c-10.7,6-27.4,11.3-48.9,11.3c-48.9,0-78.8-31.6-78.8-79.4c0-45.3,30.4-75.8,84.1-75.8
		c19.7,0,35.8,4.2,45.9,10.1L178.6,312.3L178.6,312.3z M247.3,307h15.5c14.9,0,22.7,4.8,22.7,17.3c0,14.9-12.5,17.3-22.1,17.3h-17.3
		L247.3,307L247.3,307z M247.8,369.6h6c8.4,0,11.9,6,16.1,14.9l20.9,40.6h43.6l-25.7-45.3c-5.4-9.6-11.9-19.1-20.3-21.5
		c20.9-1.2,35.8-17.3,35.2-38.2c0-33.4-25.6-41.2-56.1-41.2h-57.9l-1.1,146.2h38.8L247.8,369.6L247.8,369.6z M350.5,278.9h101.4
		v30.4h-63.2v28h62.6v29.2h-63.2v28.1h62.6V425H349.3L350.5,278.9L350.5,278.9z M535.4,311.7h0.6l14.9,50.7h-31.6L535.4,311.7z
		 M458.5,425.1h39.4l11.3-33.4h50.7l10.7,33.4h41.8l-53.7-146.2h-43.6L458.5,425.1z M624.9,278.9h38.2l-1.2,114.6h66.2l-0.6,31.6
		H623.7L624.9,278.9z M766.9,352.3c0-32.2,17.9-47.1,39.4-47.1c22.1,0,40,14.9,40,47.1s-17.9,46.5-40,46.5
		C784.8,398.8,766.9,384.5,766.9,352.3z M727.6,352.3c0,42.4,29.2,77.6,79.4,77.6c49.5,0,78.8-35.2,78.8-77.6
		c0-42.9-29.2-77.6-78.8-77.6C756.8,274.7,727.6,309.4,727.6,352.3z M1034.2,419.1c-17.3,8.4-36.4,10.7-56.1,10.7
		c-48.9,0-79.4-31.6-79.4-79.4c0-45.3,31-75.8,84.1-75.8c20.3,0,36.4,4.2,52.5,13.1l-0.6,31.6c-18.5-10.8-35.2-15.5-47.7-14.3
		c-28,1.2-48.3,18.5-48.3,46.5c0,26.2,16.1,47.1,44.2,47.1c6.6,0.6,11.9-1.2,14.9-3l0.6-50.1h37L1034.2,419.1L1034.2,419.1z
		 M1163.7,349.3l-40.6-70.4h43l22.1,44.7l26.3-44.7h41.2l-44.2,70.4l45.4,75.8h-44.8l-25.7-48.9l-25,48.9h-43.6L1163.7,349.3
		L1163.7,349.3z"/>
</g>
<g>
	<path class="st2" d="M1539.7,73.7c0-1.2-3-5.4-4.2-7.8s-3.6-1.2-9-1.2s-14.9,5.4-26.2,12.5c-10.7,6.6-39.4,27.5-44.2,30.4
		c-4.2,2.4-13.1,10.1-25.1,16.7c-11.3,6-19.1,9.5-24.5,9.5c-4.2,0-24.5-20.3-29.2-25.1c-4.2-5.4-31.6-31-45.3-41.2
		c-8.4-6.6-17.3-12.5-20.9-14.9c-3-1.8-9-6.6-12.5-7.8c-3-0.6-9.6-0.6-11.9,0h-0.6c-1.8,3-5.4,4.2-6,10.1
		c-0.6,8.9,25.7,35.8,26.2,36.4c1.2,1.2,13.7,20.9,14.9,22.7h0.6c1.2,3.6,7.8,17.9,8.9,21.5c0.6,0,0.6,0.6,0.6,0.6
		c0.6,0.6,1.2,1.8,2.4,4.2c3,5.4,8.4,13.7,5.4,18.5c0,0.6-0.6,1.8-1.8,3c-1.2,1.2-1.8,1.2-3,1.8h-0.6c-4.8,0.6-21.5,0-25.7,0
		c-4.8,0-23.9,1.2-25.1,0.6c-2.1-0.7-4.3-1.1-6.6-1.2c-1.2,0-2.4,1.2-4.2,1.2l-0.6-0.6c-1.8,0-9,0.6-13.1,0.6c-1.8,0.6-2.4,0-3,0
		c-1.2,0-15.5,0.6-20.9,1.2c-0.6,0.6-1.2,0.6-1.8,0.6c-1.2,0-9,1.2-15.5,3.6c-6,2.4-6.6,7.2-4.8,12.5v1.8l0.6,0.6
		c1.2,1.2,2.4,1.8,3.6,3c3.6,2.4,7.2,3,8.4,3.6c2.4,1.2,6,1.8,8.9,2.4c3.6,0.6,26.8,8.4,33.4,10.1c6.6,1.2,35.8,8.4,39.4,8.9
		c4.2,1.2,20.9,3,23.9,3.6c3.6,1.2,7.8,6.6,8.4,8.4v3c0.6,6.6-1.2,7.8-1.2,10.1c-0.6,3.6-0.6,14.3-0.6,14.9c0,1.2-6.6,31-7.2,33.4
		s-6,20.3-6,22.1c-0.6,1.2-2.4,6-3,6.6c-0.6,1.8-1.8,3-1.8,4.8c-0.6,3,0,9.5,0.6,11.9c0,1.2-1.2,3.6-1.2,4.8
		c-0.6,4.2-1.8,8.4-1.8,10.1c0,3.6,4.8,8.4,7.8,9.6c2.4,1.2,1.2,2.4,8.4,1.8c7.8-0.6,14.3-14.3,15.5-15.5c1.2-0.6,2.4-3,4.2-6
		c1.8-3.6,4.8-8.4,6-12.5c0.6-1.2,2.4-4.8,4.2-8.9c8.4-16.7,21.5-41.2,22.1-43c2.4-4.2,6-8.9,9.6-14.3c3.6-4.8,7.2-9.5,8.4-11.9
		c1.8-2.4,1.8-2.4,9.6-3.6c4.2,0,8.4,5.4,15.5,7.2c4.8,4.8,11.9,14.3,11.9,14.9c13.7,11.9,32.2,23.3,37,25.7
		c4.2,1.8,22.1,11.9,25.1,11.9c2.4,0.6,8.9,4.2,12.5,6c4.2,1.5,8.7,1.9,13.1,1.2c3-0.6,6.6-3,6-9.5c0-0.6-0.6-1.8-0.6-3
		c-3-8.9-29.8-30.4-33.4-34c-4.2-3.6-9-7.8-15.5-18.5c-3.6-6-7.8-11.3-11.4-16.1c-3.4-4.4-6.6-9-9.5-13.7
		c-3.6-6.6-14.9-23.3-14.9-26.3c0-0.6,0.6-1.8,1.2-3l0.6-0.6c1.8-4.8,6-10.7,7.8-14.3c0.6-0.6,0.6-0.6,0.6-1.2
		c1.2-0.6,2.4-2.4,4.2-4.2c0.6-0.6,1.2-1.8,1.8-2.4c5.4-6.6,13.1-16.1,17.9-20.9c0-0.6,0.6-0.6,0.6-0.6c0.6-1.2,1.2-2.4,1.8-3h0.6
		c1.8-2.4,12.5-13.7,14.3-17.3c1.8-3.6,26.2-23.9,29.8-27.5c4.2-4.2,7.8-8.4,9-10.7c1.2-1.8,1.2-4.2,0.6-4.8
		C1538.5,76,1539.7,74.3,1539.7,73.7L1539.7,73.7z"/>
	<path class="st0" d="M1286.1,45c0,0,1.2-0.6,2.4-0.6c-0.6,0.6,0.6,4.2,0,4.2c-1.2,0.6-2.4,3-1.8,3.6c0,1.2,3.6,3.6,4.2,3.6
		s2.4-2.4,3-1.8c0.6,0.6-1.2,1.8-1.2,3.6c0,0,0,0.6,0.6,0.6s1.2-0.6,1.8,0c0,0,1.8-2.4,2.4-2.4s-0.6,3.6-0.6,4.8
		c0,1.8,4.2,1.2,4.8,1.8c0.6,1.2-3,2.4-3.6,3c-0.6,0-1.2,0.6,0,2.4c0,0.6,4.2,1.2,4.2,1.2c0.6-0.6,0-4.2,0.6-4.2
		c1.8,0,7.1,4.8,7.1,6.6c0,1.8-3.6,1.2-3.6,3.6c0,0.6,3.6,3,4.2,3c1.2,0,0.6-4.2,1.2-4.8c0.6-0.6,3.6,0.6,4.2,0.6
		c1.2,1.2-0.6,6.6,0,8.9c0.6,2.4,1.8,0,4.8,0c2.4,0,2.4-1.8,3-2.4h0.6c0.6,0.6,4.2,5.4,3,7.8c-0.6,0-3.6,1.2-3,3.6
		c0,1.8,4.2,1.8,4.8,2.4h0.6c1.2-0.6,4.2-4.8,4.8-4.8c0.6,0.6-3,10.1-0.6,14.3c3,4.2,8.9-3.6,9.5-3.6s0,8.9,0,10.7
		c0,1.2,4.2,0.6,4.8,2.4c0.6,2.4-3,5.4-4.2,6.6c-1.2,1.8-1.2,3,0,4.2c1.8,1.8,6-6.6,6.6-7.2c1.2-0.6,4.8,1.8,1.8,6.6
		c0,0.6-1.8,1.8-2.4,1.8s-2.4,1.2-0.6,3c0,0.6,0.6,0.6,0.6,0c1.8,0,3.6-3.6,4.8-3.6c1.2-0.6,4.2,2.4,4.2,3.6c0.6,1.8-4.2,4.8-6.6,6
		c-1.8,1.8-1.8,2.4-1.2,3.6c0.6,1.2,3,1.8,3.6,1.2c1.2-1.2,1.2-4.8,3.6-5.4c2.4-1.2,8.4,2.4,7.2,3c0,0.6-4.2,3-7.2,4.2
		c-1.2,0.6-3,1.8-3,2.4c-0.6,1.8,1.8,2.4,1.2,3.6v1.2c0,0.6,0,1.2,1.2,1.8c0.6,1.2,2.4-2.4,3-3.6h0.6c0.6,0,4.2,4.2,4.2,5.4
		s-3.6,1.2-4.8,1.2c-1.2,0-1.2,2.4-1.2,3s4.2,0,4.2,0.6c0,1.2-7.2,1.8-7.2,4.2c0,0,0.6,1.2,1.8,1.8c1.8,1.2,3.6,1.8,4.2,2.4
		c0.6,0,1.2,0.6,1.8,0.6h1.8c0.6-0.6-0.6-1.8-0.6-3s0.6-2.4,4.2-1.8c1.2,0.6,3.6-10.1,3.6-8.9c0.6,0.6,3.6,9.5,3,10.7
		c-0.6,0.6-0.6,1.2-1.8,0.6c-3-0.6-5.4,3.6-5.4,4.8c0.6,0,0.6,0,1.2,0.6s-2.4,3-3.6,5.4c-1.2,1.8,0.6,3,2.4,3.6
		c1.2,0.6,2.4-6.6,3-6.6c1.2-1.2,1.8-4.2,4.8-4.2c1.8,0,0,4.2,0.6,4.8c0.6,1.2,2.4-1.8,4.8-2.4c2.4-0.6,4.8,2.4,4.8,4.2
		c0,1.2-4.8,1.8-6.6,1.2c-0.6-0.6-0.6,4.8-1.8,5.4c-1.2,0.6-7.8-1.8-8.4-1.2c-0.6,1.8,1.8,3,3,3.6c0.6,0,1.8,1.2,0.6,1.8l-0.6,0.6
		c-0.6,1.2,0,2.4,0,3.6c-0.6,1.2-1.2,0-1.8-0.6c0,0-0.6,0-1.2,0.6s-0.6,1.2-0.6,1.8c-0.6,0.6-3.6-0.6-4.2,0c0,0-0.6,1.2,0,3.6
		c0,3,6-0.6,7.1,0c0.6,0.6-0.6,5.4,1.2,8.4c2.4,3,6-0.6,6.6,0c0,1.2-1.8,5.4-1.8,6.6s1.8,3,2.4,3s-0.6-3.6,0-4.8s1.8-0.6,3-1.2
		c1.2-0.6-2.4-9.5-3-11.3c0-1.2-4.8-1.2-4.8-3.6c0-1.8,3-2.4,3.6-1.2c0,0,0,0.6,0.6,0.6c1.2,0,1.8,0,3-0.6c0-0.6-0.6-1.8-1.2-3
		c0-0.6-0.6-1.2-0.6-1.8c-0.6-1.8,0-3.6,3-6c1.2-1.2,3,0,3.6,0c0,0.6,1.8-0.6,1.2,1.8c0,1.2,1.2,3,2.4,3c1.8,0,2.4-4.8,0.6-5.4
		c-4.2-3,0-10.1,1.8-10.1c8.9,0.6,1.8,3.6,2.4,4.8c1.2,1.8,3.6,2.4,4.2,2.4c0.6,0.6-4.2,3,1.2,8.4l1.2,1.2c1.2,1.8,3,4.8,2.4,6.6
		c0,3-3,5.4-2.4,6.6c0,0.6,4.2,0,6,2.4c1.2,2.4-3.6,4.8-5.4,5.4c-1.8,0.6-2.4-1.2-4.2-1.8c-2.4-1.2-7.2-1.2-9-0.6c0,0-0.6,0-0.6,0.6
		l-1.2,1.2c-0.6,0.6-1.8,1.8-1.8,2.4c-0.6,1.2,4.8-1.8,5.4-1.8c1.2,0,0,6,1.8,8.9c1.8,3,4.2,3.6,4.8,3.6c1.2,0,1.8-0.6,3-2.4
		c0.6-1.8-3-3.6-4.2-6c-1.2-1.8,1.8-2.4,3.6-1.8l0.6,0.6c1.2,0,6,2.4,8.4,3s4.8-1.8,4.8-3s-1.8-1.2-1.8-1.2c0-0.6,1.2-5.4,1.8-6
		c0.6-0.6,3,1.2,3,3c0,0,0.6,2.4,4.2,2.4c3,0,5.4-1.2,5.4-0.6c-3,7.2-12.5,5.4-13.1,6s3.6,3,3.6,3.6c-4.2,2.4-6,0-7.8,0
		c-0.6,0-0.6,0-2.4-0.6c-1.2-0.6-2.4-0.6-3-0.6s-0.6,0.6-0.6,2.4c0,0.6,0.6,1.2,1.8,1.2c1.2,0.6,3.6,1.2,4.2,2.4
		c0,1.8-0.6,7.2-0.6,7.8v3c0,0,0.6-0.6,1.2-1.8c0,0,0.6-0.6,0.6-1.2c0.6,0,2.4-7.8,2.4-7.8c3.6,0.6,0.6,5.4,1.8,7.8
		c0,0.6,0.6,1.2,1.8,1.2c1.2,0,3-0.6,4.2-1.2h0.6l0.6-0.6c0.6,0,0.6,0,0.6,0.6c0,0,4.2,6-0.6,6.6c-0.6,0-3.6-1.8-4.2-1.2
		c-0.6,0-0.6,5.4,0,5.4c1.2,0,2.4-3,3.6-3c0.6,0,1.2,0.6,2.4,0.6c1.2,0.6,3,1.2,4.2,1.8c0.6,0,7.2-0.6,7.8,0c0.6,0,3.6,1.8,3.6,3
		c0,0.6-5.4,0-5.4,6c0,0.6,1.8,0.6,3.6,1.2c1.8,0.6,1.2,4.2,0.6,4.8c-0.6,1.2,1.2,1.8,1.8,1.2c0.6,0,0.6-0.6,2.4,0
		c1.2,0.6,1.8-0.6,1.2-1.8c0-1.2-1.2,0-2.4-0.6c-1.2-0.6,1.8-9.5,1.8-9.5c0.6,0.6-6-7.8,0-7.8c6,0.6,3,8.4,3,10.1
		c0,1.2,7.2,3.6,7.8,4.8c4.2,6.6-3,4.8-3.6,5.4c-0.6,0.6-1.8,0-3,0c-0.6,0-0.6-1.8-1.2-1.2s0,2.4,0,3l2.4,0.6c0,0.6-0.6,4.2,0,6
		c0.6,0.6,2.4,0.6,3.6,1.2c1.8,0-1.2,3.6,4.2,3c0.6,0,1.8,1.8,1.8,1.2c4.2-3.6,1.8-8.4,1.8-8.4s2.4-4.8,6,0c0,0.6-1.2,8.4-1.8,9.5
		c-0.6,0.6-6,2.4-7.2,3.6s0,1.8,0.6,2.4c0.6,0,2.4-3,3-3c0.6,0.6,2.4,2.4,3.6,2.4c1.8,0,4.8-6.6,5.4-6.6s2.4,0.6,2.4,3
		c0.6,1.8,0,5.4,3.6,7.2c0.6,0,7.8-4.8,5.4-0.6c-1.2,3.6,6.6,3.6,6,4.8c-1.2,0.6-0.6,0.6-1.2,1.2s0,3-0.6,3c-3,1.2-7.8-3-7.8-1.8
		c-1.2,1.8,3,6.6,7.2,6.6c1.8,0,7.2-1.8,7.2-1.8c1.2,2.4,2.4-6,3-6s5.4,4.2,5.4,4.2l-0.6,3.6c0,0.6,5.4,2.4,6.6,2.4
		c0.6,0-1.8-3-2.4-4.2c0.6,0,3,0.6,3.6,0.6c0,0,3.6,6.6,4.8,6.6c2.4,0,2.4,1.8,4.8,1.8c0.6,0,3.6-1.8,4.2-1.2c2.4,4.2,3,0,4.2-0.6
		c0.6-0.6,3,4.8,3,4.8s1.2,0,1.2-1.8c0.6-0.6,4.2,3.6,3.6-1.8c1.8,7.2-2.4,10.1-5.4,10.7c-3.6,0.6-8.4,0.6-13.1-1.2
		c-3.6-1.8-10.1-5.4-12.5-6c-3,0-20.9-10.1-25.1-11.9c-4.8-2.4-23.3-13.7-37-25.7c0-0.6-7.2-10.1-11.9-14.9
		c-7.2-1.8-11.3-7.2-15.5-7.2c-7.8,1.2-7.8,1.2-9.6,3.6c-1.2,2.4-4.8,7.2-8.4,11.9c-3.6,5.4-7.2,10.1-9.6,14.3
		c-0.6,1.8-13.7,26.3-22.1,43c-1.8,4.2-3.6,7.8-4.2,8.9c-1.2,4.2-4.2,9-6,12.5c-1.8,3-3,5.4-4.2,6c-1.2,1.2-7.8,14.9-15.5,15.5
		c-7.1,0.6-6-0.6-8.4-1.8c-3-1.2-7.8-6-7.8-9.6c0-1.8,1.2-6,1.8-10.1c0-1.2,1.2-3.6,1.2-4.8c-0.6-2.4-1.2-8.9-0.6-11.9
		c0-1.8,1.2-3,1.8-4.8c0.6-0.6,2.4-5.4,3-6.6c0-1.8,5.4-19.7,6-22.1s7.2-32.2,7.2-33.4c0-0.6,0-11.3,0.6-14.9
		c0-2.4,1.8-3.6,1.2-10.1v-3c-0.6-1.8-4.8-7.2-8.4-8.4c-3-0.6-19.7-2.4-23.9-3.6c-3.6-0.6-32.8-7.8-39.4-8.9
		c-6.6-1.8-29.8-9.5-33.4-10.1c-3-0.6-6.6-1.2-8.9-2.4c-1.2-0.6-4.8-1.2-8.4-3.6c-1.2-1.2-2.4-1.8-3.6-3l-0.6-0.6v-1.8
		c-1.8-5.4-1.2-10.1,4.8-12.5c6.6-2.4,14.3-3.6,15.5-3.6c0.6,0,1.2,0,1.8-0.6c5.4-0.6,19.7-1.2,20.9-1.2c0.6,0,1.2,0.6,3,0
		c4.2,0,11.4-0.6,13.1-0.6l0.6,0.6c1.8,0,3-1.2,4.2-1.2c1.8,0,4.8,0.6,6.6,1.2c1.2,0.6,20.3-0.6,25.1-0.6c4.2,0,20.9,0.6,25.7,0h0.6
		c1.2-0.6,1.8-0.6,3-1.8s1.8-2.4,1.8-3c3-4.8-2.4-13.1-5.4-18.5c-1.2-2.4-1.8-3.6-2.4-4.2c0,0,0-0.6-0.6-0.6
		c-1.2-3.6-7.8-17.9-8.9-21.5h-0.6c-1.2-1.8-13.7-21.5-14.9-22.7c-0.6-0.6-26.8-27.5-26.2-36.4C1280.8,49.2,1284.3,48,1286.1,45
		L1286.1,45z M1347,174.5c-1.2,1.8,0.6,2.4,0.6,3c-0.6,0.6-1.8,0-3,0c0,0-0.6,0-0.6,0.6s2.4,0.6,3.6,1.8c0.6,0.6,1.2,1.8,1.8,2.4
		c0.6,0.6,1.8,0.6,2.4,0.6c1.8,1.2,2.4-2.4,3.6-3.6c1.8-1.2,1.8-2.4,0-1.8c-1.2,0-3-2.4-4.2-3C1350,173.3,1349.4,173.3,1347,174.5
		L1347,174.5z M1279.6,173.9c-0.6-1.2-1.8-2.4-3-2.4s-0.6,3-3,3c-1.2,0.6,0.6,6,2.4,6.6c1.2,0.6,1.8,0.6,3,0s-3-2.4-2.4-4.2
		c1.2-2.4,4.2-1.8,3.6-2.4L1279.6,173.9L1279.6,173.9z M1247.3,175.1c-1.8,1.2-1.2,2.4-1.2,3.6c0,1.8,3,1.2,6,0.6
		c2.4-0.6,1.8-0.6,0.6-3.6C1251.5,172.1,1249.1,174.5,1247.3,175.1L1247.3,175.1z M1228.3,184c2.4,0-2.4-5.4-0.6-6
		c0.6-1.2,3.6,4.2,4.2,4.2c1.2,0,1.8-1.2,2.4-4.2c-0.1-1.7-0.9-3.3-2.4-4.2c-1.8-2.4-3-2.4-3.6-2.4c-1.8-0.6-1.2-0.6-1.8-1.8
		c-0.6-1.2-2.4,0-2.4,1.2c-0.6,1.2,3.6,2.4,2.4,3c-1.2,0-5.4-1.2-6.6-0.6c-1.8,0.6-1.2,1.8-0.6,3.6c0,1.2-0.6,1.2-1.2,1.8l-0.6,0.6
		c0,1.8,1.8,3,3,3s-0.6-3.6,0-4.2c0.6-0.6,1.8,0.6,2.4,1.8C1224.1,181.1,1225.9,184,1228.3,184L1228.3,184z M1400.7,185.8
		c-0.6-0.6-2.4-1.8-3.6-1.8h-1.2c-0.6,0.6,0.6,1.8,0.6,2.4c0,0.6-0.6,2.4,0,2.4s1.8,0,3-0.6C1400.7,187.6,1401.3,186.4,1400.7,185.8
		L1400.7,185.8z M1320.1,184c0.6-0.6,2.4-3.6,1.2-7.2c-0.6-3-1.8-2.4-3.6-1.8c0.6,3-3.6,7.2-3,7.2c0.6,0.6,4.2-0.6,4.2-0.6
		s-1.2,1.2-1.2,2.4v0.6C1317.7,184.6,1318.9,184.6,1320.1,184z M1304.6,184c0.6-1.8,0.6-7.2,0.6-7.8c0-1.8,1.2-1.8,2.4-1.8h1.2
		c1.2,0,2.4,1.2,4.2,0c1.2-1.2,3-2.4,0.6-3c-1.8,0-3,1.2-4.2,0.6h-0.6c-2.4,0-3-3-3.6-2.4c-1.2,0.6-2.4,5.4-3.6,6.6
		c-2.4,1.2-3,3-3,4.2c-0.6,1.2-0.6,2.4,0,3c0,0.6-0.6,0.6,0,0.6c0,0.6,0,0.6,0.6,0.6v0.6c0.6,0.6,4.2,0,4.8,0
		C1304,185.2,1304.6,184.6,1304.6,184L1304.6,184z M1289.7,184l6-6c3-3.6-1.8-6.6-1.2-7.2c0.6-0.6,1.2-1.2,0.6-1.8
		c0-0.6-1.8-1.2-4.2,1.2c-1.8,1.8-1.2,4.8-1.8,5.4c-1.2,1.2-3.6,3-4.2,3.6c0,1.2,1.2,4.8,1.2,4.8c0.6,0.6,1.2,1.2,1.2,1.8
		C1287.3,185.8,1288.5,185.2,1289.7,184L1289.7,184z M1240.8,185.2c0.6-0.6,0-1.2,0-1.2c-0.6-0.6-1.2-1.2-1.2-1.8
		c0-1.2,1.2-5.4,1.2-6c-0.6-1.8-3-4.2-5.4-4.2c-1.2,0-0.6,2.4-0.6,3.6h0.6c-0.6,1.2,2.4,4.8,1.8,5.4c-0.6,1.2-1.8-0.6-1.8,0.6v2.4
		l0.6,1.2C1237.5,185.8,1239.3,185.8,1240.8,185.2L1240.8,185.2z M1382.8,212.1c-1.2,0.6-1.2,1.8,0,3c0.6,0.6,1.8,0.6,1.8,1.2
		l0.6,0.6c0.6,0.6,1.8,0,1.8-1.2c-0.6-1.2,0-3.6-1.2-3.6C1385.8,212.7,1383.4,211.5,1382.8,212.1z M1395.9,227.6h-0.6
		c0-0.6-1.8-0.6-1.8-1.2s4.2-2.4,2.4-3c-1.8-0.6-1.8-2.4-2.4-2.4s-2.4-1.2-2.4-0.6c0,1.2,0.6,1.8-0.6,2.4c-1.8,0-6-2.4-4.8,0
		c1.2,1.2,2.4,3.6,2.4,4.8s0,3,0.6,3c1.2,0.6,4.8,1.2,6.6,0C1396.5,230,1395.9,228.2,1395.9,227.6L1395.9,227.6z M1518.2,301.6
		c-1.2,0-1.2,1.2-1.2,3v0.6c0.6,0.6,1.8-0.6,2.4-1.2C1520.6,302.8,1519.4,302.2,1518.2,301.6L1518.2,301.6z M1359.5,272.4
		c-1.8,1.2-3,2.4-3,3c-0.6,0.6-1.2,2.4,1.2,2.4c1.8,0,8.4,6.6,9.6,6.6c1.8,0-1.2-4.2-0.6-5.4c0.6-0.6,6,3.6,10.1,2.4
		c4.2-1.8,0-5.4-0.6-6c-1.2-1.2-10.1,1.8-10.7,1.2c0-1.2,1.2-2.4,0-4.2C1364.9,271.8,1361.3,271.8,1359.5,272.4L1359.5,272.4z
		 M1373.2,270v2.4c1.2,0,4.8,2.4,5.4,0l0.6-1.2c0-0.6,0-1.2-0.6-1.2C1376.8,268.8,1373.2,269.4,1373.2,270z M1369.7,258.6
		c-1.2,1.2,3.6,1.2,3.6,1.8c0.6,1.2-3.6,1.2-3.6,2.4c0.6,0,1.8,0,3,0.6c1.2,0,2.4,0.6,2.4,0.6c1.8,0,3.6,3.6,5.4,2.4
		s-0.6-2.4-2.4-4.2c-1.2-1.2,1.2-2.4-0.6-3.6C1376.2,258,1371.5,257.4,1369.7,258.6L1369.7,258.6z M1361.3,316.5
		c1.8-5.4,4.2-10.1,5.4-11.9c2.4-3.6,0-10.1,0.6-10.7s1.8,1.2,3-1.2c1.2-2.4-3-6.6-3.6-6.6c-1.2,0,0,1.8-1.2,3
		c-1.8,0.6-2.4-1.8-3.6,0c-2.4,1.2-8.9-2.4-8.9,0c0,7.2,10.1,6,10.7,7.8c1.2,1.2-1.8,3.6-2.4,4.2c-0.6,0-6-0.6-7.2-1.2
		c-1.8-0.6-4.8,0-4.8,2.4c-0.6,1.8,1.8,6.6,5.4,6.6c3,0,3.6,3.6,3.6,6l-0.6,4.8c0,1.2-2.4-1.2-3-0.6c0,0-0.6-2.4-1.8-4.2
		c-1.2-1.2-1.8-1.8-2.4-1.8s-1.8,0.6-3,1.8c-2.4,1.8-4.2,4.2-4.2,5.4c0,6.6,9.6,7.1,9.6,7.1c0,1.2-2.4,4.2-3.6,3.6
		s-7.8-10.1-10.1-1.2c-0.6,1.8,3,5.4,3.6,6.6c0.6,0.6,0.6,0.6,0.6,1.2c0,1.2-5.4,3-7.8,7.8c-0.8,1.9-0.3,4,1.2,5.4l0.6,0.6
		c-0.6,0-3.6,1.8-4.8,3c-0.6,0-1.2,0.6-0.6,0.6c4.2,0.6,6.6-3,10.7-7.2c1.2-1.2,6-5.4,8.4-10.7c3-4.2,4.2-10.1,4.8-11.9
		C1357.1,323.1,1360.7,317.7,1361.3,316.5L1361.3,316.5z M1328.5,346.3c-0.6,0.6,0,1.2,0,1.8c0,0.6,1.2,1.2,1.2,1.2
		c1.8,0,0.6,0.6,1.8,0.6c1.2,0,1.2-0.6,1.2-1.8c0-1.8-0.6-0.6-1.2-1.2s0-0.6-0.6-0.6C1330.3,345.7,1328.5,346.3,1328.5,346.3z
		 M1338,110.1c0-0.6-0.6-1.2-0.6-1.2c-0.6,0-0.6,0.6-1.2,1.2s-0.6,0.6-1.2,0.6c0,0,0,4.2,0.6,4.2l1.2-0.6h0.6c0.6,0,0.6-2.4,0.6-2.4
		c0.6-0.6,1.2-1.2,1.2-1.2C1339.2,110.1,1338,110.1,1338,110.1z"/>
</g>
<rect x="67" y="458" class="st3" width="1178" height="66"/>
<g class="st4">
	<path class="st5" d="M161.2,496.2v-35.8h13.4c2.7,0,4.9,0.4,6.6,1.1c1.7,0.7,2.9,1.8,3.9,3.3c0.9,1.5,1.4,3.1,1.4,4.7
		c0,1.5-0.4,3-1.2,4.3c-0.8,1.4-2.1,2.4-3.8,3.3c2.2,0.6,3.8,1.7,5,3.2s1.7,3.3,1.7,5.4c0,1.7-0.4,3.2-1.1,4.7
		c-0.7,1.4-1.6,2.6-2.6,3.3c-1,0.8-2.3,1.4-3.9,1.8c-1.6,0.4-3.5,0.6-5.8,0.6h-13.6L161.2,496.2L161.2,496.2z M165.9,475.4h7.7
		c2.1,0,3.6-0.1,4.5-0.4c1.2-0.4,2.1-1,2.7-1.8s0.9-1.9,0.9-3.1s-0.3-2.2-0.9-3.1c-0.6-0.9-1.4-1.5-2.4-1.9
		c-1.1-0.3-2.9-0.5-5.4-0.5h-7.2L165.9,475.4L165.9,475.4z M165.9,492h8.9c1.5,0,2.6-0.1,3.2-0.2c1.1-0.2,2-0.5,2.7-1s1.3-1.1,1.8-2
		s0.7-1.9,0.7-3c0-1.3-0.3-2.5-1-3.5s-1.6-1.7-2.8-2.1s-3-0.6-5.2-0.6h-8.3L165.9,492L165.9,492z"/>
	<path class="st5" d="M210.8,496.2v-35.8h15.9c3.2,0,5.6,0.3,7.3,1c1.7,0.6,3,1.8,4,3.4s1.5,3.4,1.5,5.4c0,2.5-0.8,4.7-2.5,6.4
		c-1.6,1.7-4.2,2.8-7.6,3.3c1.3,0.6,2.2,1.2,2.9,1.8c1.4,1.3,2.7,2.9,3.9,4.8l6.2,9.7h-6l-4.7-7.4c-1.4-2.1-2.5-3.8-3.4-4.9
		s-1.7-1.9-2.4-2.4s-1.4-0.8-2.2-1c-0.5-0.1-1.4-0.2-2.6-0.2h-5.5v15.9L210.8,496.2L210.8,496.2z M215.6,476.2h10.2
		c2.2,0,3.9-0.2,5.1-0.7c1.2-0.4,2.1-1.2,2.8-2.1c0.6-1,1-2.1,1-3.2c0-1.7-0.6-3.1-1.8-4.2s-3.2-1.6-5.8-1.6h-11.3v11.8L215.6,476.2
		L215.6,476.2z"/>
	<path class="st5" d="M262.9,496.2v-35.8h25.9v4.2h-21.1v11h19.8v4.2h-19.8V492h22v4.2H262.9z"/>
	<path class="st5" d="M318.5,496.2l-9.5-35.8h4.9l5.4,23.5c0.6,2.5,1.1,4.9,1.5,7.3c0.9-3.8,1.4-6,1.6-6.6l6.8-24.2h5.7l5.1,18.1
		c1.3,4.5,2.2,8.7,2.8,12.7c0.5-2.3,1-4.9,1.8-7.8l5.6-23h4.8l-9.8,35.8h-4.6l-7.5-27.3c-0.6-2.3-1-3.7-1.1-4.2
		c-0.4,1.6-0.7,3-1,4.2l-7.6,27.3H318.5z"/>
	<path class="st5" d="M430.8,483.6l4.7,1.2c-1,3.9-2.8,6.9-5.4,8.9s-5.7,3.1-9.5,3.1c-3.9,0-7-0.8-9.4-2.4s-4.3-3.8-5.5-6.8
		c-1.3-3-1.9-6.2-1.9-9.6c0-3.7,0.7-7,2.1-9.8s3.5-4.9,6.1-6.3s5.5-2.2,8.7-2.2c3.6,0,6.6,0.9,9,2.7c2.4,1.8,4.1,4.4,5.1,7.7
		l-4.7,1.1c-0.8-2.6-2-4.5-3.6-5.7s-3.6-1.8-6-1.8c-2.8,0-5,0.7-6.9,2c-1.8,1.3-3.1,3.1-3.9,5.3c-0.7,2.2-1.1,4.5-1.1,6.9
		c0,3,0.4,5.7,1.3,8s2.3,4,4.1,5.1c1.9,1.1,3.9,1.7,6.1,1.7c2.7,0,4.9-0.8,6.7-2.3C428.9,488.9,430.2,486.7,430.8,483.6z"/>
	<path class="st5" d="M457.5,496.2v-35.8h15.9c3.2,0,5.6,0.3,7.3,1c1.7,0.6,3,1.8,4,3.4s1.5,3.4,1.5,5.4c0,2.5-0.8,4.7-2.5,6.4
		c-1.6,1.7-4.2,2.8-7.6,3.3c1.3,0.6,2.2,1.2,2.9,1.8c1.4,1.3,2.7,2.9,3.9,4.8l6.2,9.7h-6l-4.7-7.4c-1.4-2.1-2.5-3.8-3.4-4.9
		s-1.7-1.9-2.4-2.4c-0.7-0.5-1.4-0.8-2.2-1c-0.5-0.1-1.4-0.2-2.6-0.2h-5.5v15.9L457.5,496.2L457.5,496.2z M462.2,476.2h10.2
		c2.2,0,3.9-0.2,5.1-0.7c1.2-0.4,2.1-1.2,2.8-2.1c0.6-1,1-2.1,1-3.2c0-1.7-0.6-3.1-1.8-4.2c-1.2-1.1-3.2-1.6-5.8-1.6h-11.3v11.8
		L462.2,476.2L462.2,476.2z"/>
	<path class="st5" d="M505.6,496.2l13.7-35.8h5.1l14.6,35.8h-5.4l-4.2-10.8h-15l-3.9,10.8H505.6z M515.9,481.5H528l-3.7-9.9
		c-1.1-3-2-5.5-2.5-7.4c-0.5,2.3-1.1,4.6-1.9,6.8L515.9,481.5z"/>
	<path class="st5" d="M559.1,496.2v-35.8h24.1v4.2h-19.4v11.1h16.8v4.2h-16.8v16.3L559.1,496.2L559.1,496.2z"/>
	<path class="st5" d="M614.5,496.2v-31.6h-11.8v-4.2h28.4v4.2h-11.8v31.6H614.5z"/>
	<path class="st5" d="M652,496.2v-35.8h25.9v4.2h-21.1v11h19.8v4.2h-19.8V492h22v4.2H652z"/>
	<path class="st5" d="M701.4,496.2v-35.8h15.9c3.2,0,5.6,0.3,7.3,1c1.7,0.6,3,1.8,4,3.4s1.5,3.4,1.5,5.4c0,2.5-0.8,4.7-2.5,6.4
		c-1.6,1.7-4.2,2.8-7.6,3.3c1.3,0.6,2.2,1.2,2.9,1.8c1.4,1.3,2.7,2.9,3.9,4.8l6.2,9.7h-6l-4.7-7.4c-1.4-2.1-2.5-3.8-3.4-4.9
		s-1.7-1.9-2.4-2.4s-1.4-0.8-2.2-1c-0.5-0.1-1.4-0.2-2.6-0.2h-5.5v15.9L701.4,496.2L701.4,496.2z M706.1,476.2h10.2
		c2.2,0,3.9-0.2,5.1-0.7c1.2-0.4,2.1-1.2,2.8-2.1c0.6-1,1-2.1,1-3.2c0-1.7-0.6-3.1-1.8-4.2s-3.2-1.6-5.8-1.6h-11.3v11.8L706.1,476.2
		L706.1,476.2z"/>
	<path class="st5" d="M751.8,484.7l4.5-0.4c0.2,1.8,0.7,3.3,1.5,4.4s2,2.1,3.6,2.8c1.6,0.7,3.5,1.1,5.5,1.1c1.8,0,3.4-0.3,4.8-0.8
		c1.4-0.5,2.4-1.3,3.1-2.2c0.7-0.9,1-2,1-3.1s-0.3-2.1-1-2.9s-1.7-1.5-3.2-2.1c-1-0.4-3.1-1-6.4-1.7c-3.3-0.8-5.6-1.5-6.9-2.2
		c-1.7-0.9-3-2-3.8-3.3s-1.3-2.8-1.3-4.5c0-1.8,0.5-3.5,1.5-5.1s2.5-2.8,4.5-3.6c2-0.8,4.2-1.2,6.6-1.2c2.7,0,5,0.4,7,1.3
		s3.6,2.1,4.7,3.8c1.1,1.7,1.7,3.5,1.8,5.6l-4.5,0.3c-0.2-2.3-1.1-4-2.5-5.1c-1.4-1.2-3.5-1.7-6.2-1.7c-2.9,0-5,0.5-6.3,1.6
		s-2,2.3-2,3.8c0,1.3,0.5,2.3,1.4,3.2c0.9,0.8,3.3,1.7,7.1,2.6s6.5,1.6,7.9,2.3c2.1,1,3.6,2.2,4.6,3.7s1.5,3.2,1.5,5.1
		s-0.5,3.7-1.6,5.4c-1.1,1.7-2.7,3-4.7,3.9s-4.3,1.4-6.9,1.4c-3.2,0-6-0.5-8.1-1.4c-2.2-0.9-3.9-2.4-5.2-4.3
		C752.5,489.2,751.8,487.1,751.8,484.7z"/>
	<path class="st5" d="M832.6,496.2v-35.8H845c2.8,0,4.9,0.2,6.4,0.5c2.1,0.5,3.8,1.3,5.2,2.6c1.9,1.6,3.3,3.6,4.2,6.1
		s1.4,5.3,1.4,8.5c0,2.7-0.3,5.1-1,7.2s-1.4,3.8-2.4,5.2c-1,1.4-2.1,2.5-3.3,3.2c-1.2,0.8-2.6,1.4-4.3,1.8s-3.6,0.6-5.7,0.6
		L832.6,496.2L832.6,496.2z M837.4,492h7.6c2.4,0,4.2-0.2,5.6-0.7c1.3-0.4,2.4-1.1,3.2-1.9c1.1-1.1,2-2.6,2.6-4.5s0.9-4.2,0.9-6.9
		c0-3.7-0.6-6.6-1.8-8.6s-2.7-3.4-4.5-4c-1.3-0.5-3.3-0.7-6.1-0.7h-7.5V492z"/>
	<path class="st5" d="M885.5,496.2v-35.8h4.7v35.8H885.5z"/>
	<path class="st5" d="M924.9,496.2L911,460.4h5.1l9.3,26c0.7,2.1,1.4,4,1.9,5.9c0.6-2,1.2-3.9,1.9-5.9l9.7-26h4.8l-14,35.8
		L924.9,496.2L924.9,496.2z"/>
	<path class="st5" d="M964.8,496.2v-35.8h4.7v35.8H964.8z"/>
	<path class="st5" d="M992.3,484.7l4.5-0.4c0.2,1.8,0.7,3.3,1.5,4.4s2,2.1,3.6,2.8c1.6,0.7,3.5,1.1,5.5,1.1c1.8,0,3.4-0.3,4.8-0.8
		c1.4-0.5,2.4-1.3,3.1-2.2c0.7-0.9,1-2,1-3.1s-0.3-2.1-1-2.9s-1.7-1.5-3.2-2.1c-1-0.4-3.1-1-6.4-1.7c-3.3-0.8-5.6-1.5-6.9-2.2
		c-1.7-0.9-3-2-3.8-3.3s-1.3-2.8-1.3-4.5c0-1.8,0.5-3.5,1.5-5.1s2.5-2.8,4.5-3.6c2-0.8,4.2-1.2,6.6-1.2c2.7,0,5,0.4,7,1.3
		s3.6,2.1,4.7,3.8c1.1,1.7,1.7,3.5,1.8,5.6l-4.5,0.3c-0.2-2.3-1.1-4-2.5-5.1c-1.4-1.2-3.5-1.7-6.2-1.7c-2.9,0-5,0.5-6.3,1.6
		s-2,2.3-2,3.8c0,1.3,0.5,2.3,1.4,3.2c0.9,0.8,3.3,1.7,7.1,2.6s6.5,1.6,7.9,2.3c2.1,1,3.6,2.2,4.6,3.7s1.5,3.2,1.5,5.1
		s-0.5,3.7-1.6,5.4c-1.1,1.7-2.7,3-4.7,3.9s-4.3,1.4-6.9,1.4c-3.2,0-6-0.5-8.1-1.4c-2.2-0.9-3.9-2.4-5.2-4.3
		C993,489.2,992.3,487.1,992.3,484.7z"/>
	<path class="st5" d="M1044,496.2v-35.8h4.7v35.8H1044z"/>
	<path class="st5" d="M1071.7,478.8c0-5.9,1.6-10.6,4.8-14c3.2-3.4,7.3-5,12.4-5c3.3,0,6.3,0.8,8.9,2.4c2.7,1.6,4.7,3.8,6.1,6.6
		c1.4,2.8,2.1,6,2.1,9.6s-0.7,6.9-2.2,9.7c-1.5,2.9-3.5,5-6.2,6.5s-5.6,2.2-8.7,2.2c-3.4,0-6.4-0.8-9-2.4c-2.7-1.6-4.7-3.8-6-6.7
		C1072.4,484.9,1071.7,481.9,1071.7,478.8z M1076.6,478.8c0,4.3,1.2,7.7,3.5,10.2s5.2,3.7,8.7,3.7c3.6,0,6.5-1.3,8.8-3.8
		s3.5-6.1,3.5-10.7c0-2.9-0.5-5.5-1.5-7.6c-1-2.2-2.4-3.9-4.3-5.1s-4-1.8-6.4-1.8c-3.4,0-6.2,1.2-8.7,3.5
		C1077.8,469.6,1076.6,473.4,1076.6,478.8z"/>
	<path class="st5" d="M1128,496.2v-35.8h4.9l18.8,28.1v-28.1h4.5v35.8h-4.9l-18.8-28.1v28.1H1128z"/>
</g>
<g>
	<g>
		<path class="st6" d="M1235.9,494.9c2.5,4.9,1.2,9.2,1.2,9.2s-6.2,2.8-12.9-2c0.6-1.7,1.2-4,1.1-6.8
			C1229.6,496.6,1233.4,495.8,1235.9,494.9z M1218.8,488.3c-1-1.6-2.1-2.8-3.3-3.8c-1.6,0.6-3.5,1.2-5.6,1.5c-0.9,4-2.3,7.4-3.5,9.6
			c0,0.1,0.1,0.1,0.1,0.2c5,8,12.7,6.8,12.7,6.8S1223.7,496.3,1218.8,488.3z M1236.6,490c0,0,1-6.5-4.8-11.2
			c-1.5,0.2-3.2,0.3-5.1,0.2c-1.6-0.2-3.1-0.5-4.4-0.9c0,0.6-0.1,1-0.1,1.1l-0.2,1.8l-1.5,1c-0.1,0.1-0.5,0.3-1,0.6
			c1,1,1.9,2.1,2.8,3.6c1,1.6,1.7,3.1,2.1,4.6C1231.3,493.8,1236.6,490,1236.6,490z M1236.3,477.4c3.1,3.4,4.1,7.1,4.4,9.7
			c5.5,0.1,8.7-3.1,8.7-3.1s-0.3-6.8-7.5-10.6C1240.6,474.7,1238.8,476.3,1236.3,477.4z M1228.1,460.5c-1.5,2-3.9,4.8-7,7.4
			c0.6,2,1,3.9,1.1,5.7c1.4,0.6,3,1,4.9,1.2c9.4,0.9,13.1-6,13.1-6s-2.5-7.4-11.8-8.3C1228.3,460.5,1228.2,460.5,1228.1,460.5z
			 M1240.5,491.3l-0.2,1l-0.8,0.6c1.4,2.8,2,5.4,2,7.6c5.4,1.1,9.3-1.7,9.3-1.7s0.7-4.7-2.7-9.1
			C1246.2,490.6,1243.6,491.3,1240.5,491.3z M1195.8,464.8c-12,19.4,5.7,31.6,5.7,31.6s4.1-6.3,5-14.2c5.9,0.3,11.7-3.6,11.7-3.6
			s0.8-6.9-2-12.1c6.7-4.4,10.4-10.9,10.4-10.9S1207.7,445.4,1195.8,464.8z"/>
	</g>
	<path class="st6" d="M1189.1,460.7c6.2,1.6,9,5.5,9,5.5"/>
</g>
<g>
	<g>
		<path class="st6" d="M92.7,494.1c-0.1,2.8,0.5,5.1,1.1,6.8c-6.7,4.8-12.9,2-12.9,2s-1.3-4.3,1.2-9.2
			C84.5,494.5,88.3,495.3,92.7,494.1z M98.6,501.4c0,0,7.7,1.1,12.7-6.8c0-0.1,0.1-0.1,0.1-0.2c-1.1-2.3-2.6-5.6-3.5-9.6
			c-2.1-0.3-4-0.9-5.6-1.5c-1.1,1-2.3,2.2-3.3,3.8C94.2,495,98.6,501.4,98.6,501.4z M93.5,489.4c0.5-1.5,1.2-3,2.1-4.6
			c0.9-1.4,1.8-2.6,2.8-3.6c-0.5-0.3-0.8-0.5-1-0.6l-1.5-1l-0.2-1.8c0-0.2-0.1-0.6-0.1-1.1c-1.3,0.4-2.8,0.8-4.4,0.9
			c-1.9,0.2-3.5,0.1-5.1-0.2c-5.8,4.8-4.8,11.2-4.8,11.2S86.7,492.5,93.5,489.4z M76.1,472.1c-7.3,3.8-7.5,10.6-7.5,10.6
			s3.3,3.1,8.7,3.1c0.3-2.6,1.3-6.4,4.4-9.7C79.1,475,77.3,473.4,76.1,472.1z M89.6,459.2c-9.4,0.9-11.8,8.3-11.8,8.3
			s3.8,6.9,13.1,6c1.9-0.2,3.5-0.6,4.9-1.2c0.1-1.7,0.5-3.7,1.1-5.7c-3.2-2.6-5.5-5.4-7-7.4C89.7,459.2,89.6,459.2,89.6,459.2z
			 M69.8,488.4c-3.4,4.3-2.7,9.1-2.7,9.1s3.9,2.8,9.3,1.7c0.1-2.1,0.6-4.8,2-7.6l-0.8-0.6l-0.2-1C74.3,490,71.7,489.3,69.8,488.4z
			 M91.4,454.4c0,0,3.7,6.5,10.4,10.9c-2.9,5.2-2,12.1-2,12.1s5.8,3.9,11.7,3.6c0.9,7.9,5,14.2,5,14.2s17.6-12.2,5.7-31.6
			C110.2,444.1,91.4,454.4,91.4,454.4z"/>
	</g>
	<path class="st6" d="M119.9,464.9c0,0,2.8-3.9,9-5.5"/>
</g>
</svg>
