<?xml version="1.0" encoding="utf-8"?>
<!-- Generator: Adobe Illustrator 24.1.0, SVG Export Plug-In . SVG Version: 6.00 Build 0)  -->
<svg version="1.1" id="Layer_1" xmlns="http://www.w3.org/2000/svg" xmlns:xlink="http://www.w3.org/1999/xlink" x="0px" y="0px"
	 viewBox="0 0 1602.2 552.7" style="enable-background:new 0 0 1602.2 552.7;" xml:space="preserve">
<style type="text/css">
	.st0{fill-rule:evenodd;clip-rule:evenodd;}
	.st1{fill-rule:evenodd;clip-rule:evenodd;fill:#EABC4D;}
	.st2{fill-rule:evenodd;clip-rule:evenodd;fill:#888A8D;}
	.st3{fill-rule:evenodd;clip-rule:evenodd;fill:#F2D747;}
</style>
<path class="st0" d="M69.5,472.2l4.8-1.2l9,31.6l9.5-31h4.8l8.9,31l10.1-31.6l4.2,1.2L108.9,508h-4.2l-9.5-30.4L85.1,508h-4.2
	L69.5,472.2L69.5,472.2z M150.1,471.6h4.8v16.1H174l0.6-16.1h4.2V508H174v-16.1h-19.1l-0.6,16.1h-4.2V471.6z M212.1,471.6h18.5v4.2
	h-14.3v11.9H230v4.2h-13.7v12.5h14.3v3.6h-19.1L212.1,471.6L212.1,471.6z M267,475.2h5.4c5.4,0,7.8,3,7.8,7.1c0,5.4-4.8,6.6-8.9,6.6
	h-4.8L267,475.2z M261.7,508h4.8v-15.5h3c3.6,0,4.8,2.4,7.2,4.8l8.4,11.9l4.2-2.4l-7.8-9.6c-1.2-1.8-3.6-5.4-6-6
	c5.4-0.6,9.5-4.2,9.5-10.1s-4.8-9.6-11.9-9.6h-10.7L261.7,508L261.7,508z M318.3,471.6h18.5v4.2h-14.3v11.9h13.7v4.2h-13.7v12.5
	h14.3v3.6h-19.1L318.3,471.6L318.3,471.6z M406.7,508l0.6-36.4h4.2v32.8h15.5v3.6L406.7,508L406.7,508z M460.3,490.1
	c0-8.4,6-15.5,14.3-15.5c8.4,0,14.3,7.2,14.3,15.5c0,8.4-6,14.9-14.3,14.9C466.3,505.1,460.3,498.5,460.3,490.1z M455,490.1
	c0,11.9,8.9,18.5,19.7,18.5c10.7,0,19.1-7.8,19.1-18.5c0-11.9-8.4-19.1-19.1-19.1C463.9,471,455,478.8,455,490.1z M554,489.5v16.7
	c-3.8,1.6-7.8,2.4-11.9,2.4c-10.7,0-19.1-6.6-19.1-18.5c0-11.4,8.4-19.1,19.1-19.1c3.6,0,7.8,1.2,11.3,2.4l-1.8,3.6
	c-3-1.5-6.2-2.3-9.5-2.4c-8.4,0-14.3,7.2-14.3,15.5c0,8.4,6,14.9,14.3,14.9c2.4,0,5.4-0.6,7.2-1.8l0.6-13.7H554z M587.4,471.6h4.2
	V508h-4.8L587.4,471.6z M651.9,477.6c-3-1.8-6-3-9.5-3c-8.4,0-14.3,7.2-14.3,15.5c0,8.4,6,14.9,14.3,14.9c3.6,0,6.6-1.2,9.5-3
	l1.8,3.6c-3.5,2-7.4,3-11.3,3c-10.7,0-19.1-6.6-19.1-18.5c0-11.4,8.4-19.1,19.1-19.1c4.8,0,7.8,1.2,11.3,3L651.9,477.6z
	 M752.1,489.5v16.7c-3.8,1.5-7.8,2.3-11.9,2.4c-10.7,0-19.1-6.6-19.1-18.5c0-11.4,8.4-19.1,19.1-19.1c3.6,0,7.8,1.2,11.3,2.4
	l-1.8,3.6c-3-1.5-6.2-2.3-9.5-2.4c-8.4,0-14.3,7.2-14.3,15.5c0,8.4,6,14.9,14.3,14.9c2.4,0,5.4-0.6,7.2-1.8v-13.7H752.1z
	 M787.3,490.1c0-8.4,6-15.5,14.9-15.5c8.4,0,14.3,7.2,14.3,15.5c0,8.4-6,14.9-14.3,14.9C793.3,505,787.3,498.5,787.3,490.1z
	 M782.5,490.1c0,11.9,9,18.5,19.7,18.5s19.1-7.8,19.1-18.5c0-11.9-8.4-19.1-19.1-19.1S782.5,478.8,782.5,490.1L782.5,490.1z
	 M852.4,471.6h19.1v4.2h-14.3v11.9h13.7v4.2h-13.7v12.5h14.3v3.6h-19.1V471.6L852.4,471.6z M902.5,502.7c1.8,1.2,4.8,3,7.8,3
	c4.2,0,7.2-3,7.2-7.1c0-9-16.1-5.4-16.1-17.9c0-5.4,4.2-9.6,10.8-9.6c3.6,0,7.1,1.2,9.5,3l-1.8,3c-1.8-1.2-4.2-2.4-7.2-2.4
	c-3.6,0-7.2,1.8-7.2,6.6c0,7.8,16.7,6,16.7,17.3c0,5.4-4.2,10.1-11.9,10.1c-4.2,0-7.2-0.6-10.1-3L902.5,502.7L902.5,502.7z
	 M996.1,471.6h4.2l11.3,31l11.3-31h5.4l5.4,36.4l-4.2,0.6l-4.8-31l-11.3,30.4h-4.2l-10.7-30.4l-4.8,31L989,508L996.1,471.6
	L996.1,471.6z M1083.9,492.5h-11.9l6-16.7L1083.9,492.5z M1060.6,507.4l4.2,1.2l5.4-12.5h14.9l5.4,12.5l4.2-1.2l-14.3-35.8h-4.2
	L1060.6,507.4z M1153.1,489.5v16.7c-3.8,1.5-7.8,2.3-11.9,2.4c-10.7,0-19.1-6.6-19.1-18.5c0-11.4,8.4-19.1,19.1-19.1
	c3.6,0,7.8,1.2,11.3,2.4l-1.8,3.6c-3-1.5-6.2-2.3-9.6-2.4c-8.4,0-14.3,7.2-14.3,15.5c0,8.4,6,14.9,14.3,14.9c2.4,0,5.4-0.6,7.2-1.8
	v-13.7H1153.1z M1186.5,471.6h4.2V508h-4.8L1186.5,471.6z M1250.9,477.6c-3-1.8-6-3-9.5-3c-8.4,0-14.3,7.2-14.3,15.5
	c0,8.4,6,14.9,14.3,14.9c3.6,0,6.6-1.2,9.5-3l1.8,3.6c-3.6,1.8-7.2,3-11.3,3c-10.7,0-19.1-6.6-19.1-18.5c0-11.4,8.4-19.1,19.1-19.1
	c4.2,0,7.8,1.2,11.3,3L1250.9,477.6z"/>
<g>
	<path class="st1" d="M1104.1,278.9H1066v18.5l37.6,16.7L1104.1,278.9L1104.1,278.9z"/>
	<path class="st2" d="M1064.8,425.1h38.2l0.6-77c-9.6-5.4-23.3-9.6-38.2-16.7L1064.8,425.1z"/>
	<path class="st2" d="M178.1,312.3c-8.4-4.8-21.5-7.2-30.4-7.2c-28,0-48.3,18.5-48.3,46.5c0,26.2,16.1,47.1,44.1,47.1
		c14.9,0,20.9-3.6,32.8-7.2l11.3,26.9c-10.7,6-27.4,11.3-48.9,11.3c-48.9,0-78.8-31.6-78.8-79.4c0-45.3,30.4-75.8,84.1-75.8
		c19.7,0,35.8,4.2,45.9,10.1L178.1,312.3L178.1,312.3z M246.8,307h15.5c14.9,0,22.7,4.8,22.7,17.3c0,14.9-12.5,17.3-22.1,17.3h-17.3
		L246.8,307L246.8,307z M247.3,369.6h6c8.4,0,11.9,6,16.1,14.9l20.9,40.6h43.6l-25.7-45.3c-5.4-9.6-11.9-19.1-20.3-21.5
		c20.9-1.2,35.8-17.3,35.2-38.2c0-33.4-25.6-41.2-56.1-41.2h-57.9L208,425.1h38.8L247.3,369.6L247.3,369.6z M350,278.9h101.4v30.4
		h-63.2v28h62.6v29.2h-63.2v28.1h62.6v30.4H348.8L350,278.9L350,278.9z M534.9,311.7h0.6l14.9,50.7h-31.6L534.9,311.7z M458,425.1
		h39.4l11.3-33.4h50.7l10.7,33.4h41.8l-53.7-146.2h-43.6L458,425.1z M624.4,278.9h38.2l-1.2,114.6h66.2l-0.6,31.6H623.2L624.4,278.9
		z M766.4,352.3c0-32.2,17.9-47.1,39.4-47.1c22.1,0,40,14.9,40,47.1c0,32.2-17.9,46.5-40,46.5C784.3,398.8,766.4,384.5,766.4,352.3z
		 M727.1,352.3c0,42.4,29.2,77.6,79.4,77.6c49.5,0,78.8-35.2,78.8-77.6c0-42.9-29.2-77.6-78.8-77.6
		C756.3,274.7,727.1,309.4,727.1,352.3z M1033.7,419.1c-17.3,8.4-36.4,10.7-56.1,10.7c-48.9,0-79.4-31.6-79.4-79.4
		c0-45.3,31-75.8,84.1-75.8c20.3,0,36.4,4.2,52.5,13.1l-0.6,31.6c-18.5-10.8-35.2-15.5-47.7-14.3c-28,1.2-48.3,18.5-48.3,46.5
		c0,26.2,16.1,47.1,44.2,47.1c6.6,0.6,11.9-1.2,14.9-3l0.6-50.1h37L1033.7,419.1L1033.7,419.1z M1163.2,349.3l-40.6-70.4h43
		l22.1,44.7l26.3-44.7h41.2l-44.2,70.4l45.4,75.8h-44.8l-25.7-48.9l-25,48.9h-43.6L1163.2,349.3L1163.2,349.3z"/>
</g>
<g>
	<path class="st3" d="M1539.7,73.7c0-1.2-3-5.4-4.2-7.8c-1.2-2.4-3.6-1.2-9-1.2s-14.9,5.4-26.2,12.5c-10.7,6.6-39.4,27.5-44.2,30.4
		c-4.2,2.4-13.1,10.1-25.1,16.7c-11.3,6-19.1,9.5-24.5,9.5c-4.2,0-24.5-20.3-29.2-25.1c-4.2-5.4-31.6-31-45.3-41.2
		c-8.4-6.6-17.3-12.5-20.9-14.9c-3-1.8-9-6.6-12.5-7.8c-3-0.6-9.6-0.6-11.9,0h-0.6c-1.8,3-5.4,4.2-6,10.1
		c-0.6,8.9,25.7,35.8,26.2,36.4c1.2,1.2,13.7,20.9,14.9,22.7h0.6c1.2,3.6,7.8,17.9,8.9,21.5c0.6,0,0.6,0.6,0.6,0.6
		c0.6,0.6,1.2,1.8,2.4,4.2c3,5.4,8.4,13.7,5.4,18.5c0,0.6-0.6,1.8-1.8,3c-1.2,1.2-1.8,1.2-3,1.8h-0.6c-4.8,0.6-21.5,0-25.7,0
		c-4.8,0-23.9,1.2-25.1,0.6c-2.1-0.7-4.3-1.1-6.6-1.2c-1.2,0-2.4,1.2-4.2,1.2l-0.6-0.6c-1.8,0-9,0.6-13.1,0.6c-1.8,0.6-2.4,0-3,0
		c-1.2,0-15.5,0.6-20.9,1.2c-0.6,0.6-1.2,0.6-1.8,0.6c-1.2,0-9,1.2-15.5,3.6c-6,2.4-6.6,7.2-4.8,12.5v1.8l0.6,0.6
		c1.2,1.2,2.4,1.8,3.6,3c3.6,2.4,7.2,3,8.4,3.6c2.4,1.2,6,1.8,8.9,2.4c3.6,0.6,26.8,8.4,33.4,10.1c6.6,1.2,35.8,8.4,39.4,8.9
		c4.2,1.2,20.9,3,23.9,3.6c3.6,1.2,7.8,6.6,8.4,8.4v3c0.6,6.6-1.2,7.8-1.2,10.1c-0.6,3.6-0.6,14.3-0.6,14.9c0,1.2-6.6,31-7.2,33.4
		c-0.6,2.4-6,20.3-6,22.1c-0.6,1.2-2.4,6-3,6.6c-0.6,1.8-1.8,3-1.8,4.8c-0.6,3,0,9.5,0.6,11.9c0,1.2-1.2,3.6-1.2,4.8
		c-0.6,4.2-1.8,8.4-1.8,10.1c0,3.6,4.8,8.4,7.8,9.6c2.4,1.2,1.2,2.4,8.4,1.8c7.8-0.6,14.3-14.3,15.5-15.5c1.2-0.6,2.4-3,4.2-6
		c1.8-3.6,4.8-8.4,6-12.5c0.6-1.2,2.4-4.8,4.2-8.9c8.4-16.7,21.5-41.2,22.1-43c2.4-4.2,6-8.9,9.6-14.3c3.6-4.8,7.2-9.5,8.4-11.9
		c1.8-2.4,1.8-2.4,9.6-3.6c4.2,0,8.4,5.4,15.5,7.2c4.8,4.8,11.9,14.3,11.9,14.9c13.7,11.9,32.2,23.3,37,25.7
		c4.2,1.8,22.1,11.9,25.1,11.9c2.4,0.6,8.9,4.2,12.5,6c4.2,1.5,8.7,1.9,13.1,1.2c3-0.6,6.6-3,6-9.5c0-0.6-0.6-1.8-0.6-3
		c-3-8.9-29.8-30.4-33.4-34c-4.2-3.6-9-7.8-15.5-18.5c-3.6-6-7.8-11.3-11.4-16.1c-3.4-4.4-6.6-9-9.5-13.7
		c-3.6-6.6-14.9-23.3-14.9-26.3c0-0.6,0.6-1.8,1.2-3l0.6-0.6c1.8-4.8,6-10.7,7.8-14.3c0.6-0.6,0.6-0.6,0.6-1.2
		c1.2-0.6,2.4-2.4,4.2-4.2c0.6-0.6,1.2-1.8,1.8-2.4c5.4-6.6,13.1-16.1,17.9-20.9c0-0.6,0.6-0.6,0.6-0.6c0.6-1.2,1.2-2.4,1.8-3h0.6
		c1.8-2.4,12.5-13.7,14.3-17.3c1.8-3.6,26.2-23.9,29.8-27.5c4.2-4.2,7.8-8.4,9-10.7c1.2-1.8,1.2-4.2,0.6-4.8
		C1538.5,76,1539.7,74.3,1539.7,73.7L1539.7,73.7z"/>
	<path class="st1" d="M1286.1,45c0,0,1.2-0.6,2.4-0.6c-0.6,0.6,0.6,4.2,0,4.2c-1.2,0.6-2.4,3-1.8,3.6c0,1.2,3.6,3.6,4.2,3.6
		s2.4-2.4,3-1.8c0.6,0.6-1.2,1.8-1.2,3.6c0,0,0,0.6,0.6,0.6s1.2-0.6,1.8,0c0,0,1.8-2.4,2.4-2.4c0.6,0-0.6,3.6-0.6,4.8
		c0,1.8,4.2,1.2,4.8,1.8c0.6,1.2-3,2.4-3.6,3c-0.6,0-1.2,0.6,0,2.4c0,0.6,4.2,1.2,4.2,1.2c0.6-0.6,0-4.2,0.6-4.2
		c1.8,0,7.1,4.8,7.1,6.6c0,1.8-3.6,1.2-3.6,3.6c0,0.6,3.6,3,4.2,3c1.2,0,0.6-4.2,1.2-4.8c0.6-0.6,3.6,0.6,4.2,0.6
		c1.2,1.2-0.6,6.6,0,8.9c0.6,2.4,1.8,0,4.8,0c2.4,0,2.4-1.8,3-2.4h0.6c0.6,0.6,4.2,5.4,3,7.8c-0.6,0-3.6,1.2-3,3.6
		c0,1.8,4.2,1.8,4.8,2.4h0.6c1.2-0.6,4.2-4.8,4.8-4.8c0.6,0.6-3,10.1-0.6,14.3c3,4.2,8.9-3.6,9.5-3.6c0.6,0,0,8.9,0,10.7
		c0,1.2,4.2,0.6,4.8,2.4c0.6,2.4-3,5.4-4.2,6.6c-1.2,1.8-1.2,3,0,4.2c1.8,1.8,6-6.6,6.6-7.2c1.2-0.6,4.8,1.8,1.8,6.6
		c0,0.6-1.8,1.8-2.4,1.8s-2.4,1.2-0.6,3c0,0.6,0.6,0.6,0.6,0c1.8,0,3.6-3.6,4.8-3.6c1.2-0.6,4.2,2.4,4.2,3.6c0.6,1.8-4.2,4.8-6.6,6
		c-1.8,1.8-1.8,2.4-1.2,3.6c0.6,1.2,3,1.8,3.6,1.2c1.2-1.2,1.2-4.8,3.6-5.4c2.4-1.2,8.4,2.4,7.2,3c0,0.6-4.2,3-7.2,4.2
		c-1.2,0.6-3,1.8-3,2.4c-0.6,1.8,1.8,2.4,1.2,3.6v1.2c0,0.6,0,1.2,1.2,1.8c0.6,1.2,2.4-2.4,3-3.6h0.6c0.6,0,4.2,4.2,4.2,5.4
		s-3.6,1.2-4.8,1.2c-1.2,0-1.2,2.4-1.2,3c0,0.6,4.2,0,4.2,0.6c0,1.2-7.2,1.8-7.2,4.2c0,0,0.6,1.2,1.8,1.8c1.8,1.2,3.6,1.8,4.2,2.4
		c0.6,0,1.2,0.6,1.8,0.6h1.8c0.6-0.6-0.6-1.8-0.6-3c0-1.2,0.6-2.4,4.2-1.8c1.2,0.6,3.6-10.1,3.6-8.9c0.6,0.6,3.6,9.5,3,10.7
		c-0.6,0.6-0.6,1.2-1.8,0.6c-3-0.6-5.4,3.6-5.4,4.8c0.6,0,0.6,0,1.2,0.6c0.6,0.6-2.4,3-3.6,5.4c-1.2,1.8,0.6,3,2.4,3.6
		c1.2,0.6,2.4-6.6,3-6.6c1.2-1.2,1.8-4.2,4.8-4.2c1.8,0,0,4.2,0.6,4.8c0.6,1.2,2.4-1.8,4.8-2.4c2.4-0.6,4.8,2.4,4.8,4.2
		c0,1.2-4.8,1.8-6.6,1.2c-0.6-0.6-0.6,4.8-1.8,5.4c-1.2,0.6-7.8-1.8-8.4-1.2c-0.6,1.8,1.8,3,3,3.6c0.6,0,1.8,1.2,0.6,1.8l-0.6,0.6
		c-0.6,1.2,0,2.4,0,3.6c-0.6,1.2-1.2,0-1.8-0.6c0,0-0.6,0-1.2,0.6c-0.6,0.6-0.6,1.2-0.6,1.8c-0.6,0.6-3.6-0.6-4.2,0
		c0,0-0.6,1.2,0,3.6c0,3,6-0.6,7.1,0c0.6,0.6-0.6,5.4,1.2,8.4c2.4,3,6-0.6,6.6,0c0,1.2-1.8,5.4-1.8,6.6s1.8,3,2.4,3s-0.6-3.6,0-4.8
		c0.6-1.2,1.8-0.6,3-1.2c1.2-0.6-2.4-9.5-3-11.3c0-1.2-4.8-1.2-4.8-3.6c0-1.8,3-2.4,3.6-1.2c0,0,0,0.6,0.6,0.6c1.2,0,1.8,0,3-0.6
		c0-0.6-0.6-1.8-1.2-3c0-0.6-0.6-1.2-0.6-1.8c-0.6-1.8,0-3.6,3-6c1.2-1.2,3,0,3.6,0c0,0.6,1.8-0.6,1.2,1.8c0,1.2,1.2,3,2.4,3
		c1.8,0,2.4-4.8,0.6-5.4c-4.2-3,0-10.1,1.8-10.1c8.9,0.6,1.8,3.6,2.4,4.8c1.2,1.8,3.6,2.4,4.2,2.4c0.6,0.6-4.2,3,1.2,8.4l1.2,1.2
		c1.2,1.8,3,4.8,2.4,6.6c0,3-3,5.4-2.4,6.6c0,0.6,4.2,0,6,2.4c1.2,2.4-3.6,4.8-5.4,5.4c-1.8,0.6-2.4-1.2-4.2-1.8
		c-2.4-1.2-7.2-1.2-9-0.6c0,0-0.6,0-0.6,0.6l-1.2,1.2c-0.6,0.6-1.8,1.8-1.8,2.4c-0.6,1.2,4.8-1.8,5.4-1.8c1.2,0,0,6,1.8,8.9
		c1.8,3,4.2,3.6,4.8,3.6c1.2,0,1.8-0.6,3-2.4c0.6-1.8-3-3.6-4.2-6c-1.2-1.8,1.8-2.4,3.6-1.8l0.6,0.6c1.2,0,6,2.4,8.4,3
		s4.8-1.8,4.8-3c0-1.2-1.8-1.2-1.8-1.2c0-0.6,1.2-5.4,1.8-6c0.6-0.6,3,1.2,3,3c0,0,0.6,2.4,4.2,2.4c3,0,5.4-1.2,5.4-0.6
		c-3,7.2-12.5,5.4-13.1,6c-0.6,0.6,3.6,3,3.6,3.6c-4.2,2.4-6,0-7.8,0c-0.6,0-0.6,0-2.4-0.6c-1.2-0.6-2.4-0.6-3-0.6
		c-0.6,0-0.6,0.6-0.6,2.4c0,0.6,0.6,1.2,1.8,1.2c1.2,0.6,3.6,1.2,4.2,2.4c0,1.8-0.6,7.2-0.6,7.8v3c0,0,0.6-0.6,1.2-1.8
		c0,0,0.6-0.6,0.6-1.2c0.6,0,2.4-7.8,2.4-7.8c3.6,0.6,0.6,5.4,1.8,7.8c0,0.6,0.6,1.2,1.8,1.2c1.2,0,3-0.6,4.2-1.2h0.6l0.6-0.6
		c0.6,0,0.6,0,0.6,0.6c0,0,4.2,6-0.6,6.6c-0.6,0-3.6-1.8-4.2-1.2c-0.6,0-0.6,5.4,0,5.4c1.2,0,2.4-3,3.6-3c0.6,0,1.2,0.6,2.4,0.6
		c1.2,0.6,3,1.2,4.2,1.8c0.6,0,7.2-0.6,7.8,0c0.6,0,3.6,1.8,3.6,3c0,0.6-5.4,0-5.4,6c0,0.6,1.8,0.6,3.6,1.2c1.8,0.6,1.2,4.2,0.6,4.8
		c-0.6,1.2,1.2,1.8,1.8,1.2c0.6,0,0.6-0.6,2.4,0c1.2,0.6,1.8-0.6,1.2-1.8c0-1.2-1.2,0-2.4-0.6c-1.2-0.6,1.8-9.5,1.8-9.5
		c0.6,0.6-6-7.8,0-7.8c6,0.6,3,8.4,3,10.1c0,1.2,7.2,3.6,7.8,4.8c4.2,6.6-3,4.8-3.6,5.4c-0.6,0.6-1.8,0-3,0c-0.6,0-0.6-1.8-1.2-1.2
		c-0.6,0.6,0,2.4,0,3l2.4,0.6c0,0.6-0.6,4.2,0,6c0.6,0.6,2.4,0.6,3.6,1.2c1.8,0-1.2,3.6,4.2,3c0.6,0,1.8,1.8,1.8,1.2
		c4.2-3.6,1.8-8.4,1.8-8.4s2.4-4.8,6,0c0,0.6-1.2,8.4-1.8,9.5c-0.6,0.6-6,2.4-7.2,3.6c-1.2,1.2,0,1.8,0.6,2.4c0.6,0,2.4-3,3-3
		c0.6,0.6,2.4,2.4,3.6,2.4c1.8,0,4.8-6.6,5.4-6.6s2.4,0.6,2.4,3c0.6,1.8,0,5.4,3.6,7.2c0.6,0,7.8-4.8,5.4-0.6
		c-1.2,3.6,6.6,3.6,6,4.8c-1.2,0.6-0.6,0.6-1.2,1.2c-0.6,0.6,0,3-0.6,3c-3,1.2-7.8-3-7.8-1.8c-1.2,1.8,3,6.6,7.2,6.6
		c1.8,0,7.2-1.8,7.2-1.8c1.2,2.4,2.4-6,3-6c0.6,0,5.4,4.2,5.4,4.2l-0.6,3.6c0,0.6,5.4,2.4,6.6,2.4c0.6,0-1.8-3-2.4-4.2
		c0.6,0,3,0.6,3.6,0.6c0,0,3.6,6.6,4.8,6.6c2.4,0,2.4,1.8,4.8,1.8c0.6,0,3.6-1.8,4.2-1.2c2.4,4.2,3,0,4.2-0.6c0.6-0.6,3,4.8,3,4.8
		s1.2,0,1.2-1.8c0.6-0.6,4.2,3.6,3.6-1.8c1.8,7.2-2.4,10.1-5.4,10.7c-3.6,0.6-8.4,0.6-13.1-1.2c-3.6-1.8-10.1-5.4-12.5-6
		c-3,0-20.9-10.1-25.1-11.9c-4.8-2.4-23.3-13.7-37-25.7c0-0.6-7.2-10.1-11.9-14.9c-7.2-1.8-11.3-7.2-15.5-7.2
		c-7.8,1.2-7.8,1.2-9.6,3.6c-1.2,2.4-4.8,7.2-8.4,11.9c-3.6,5.4-7.2,10.1-9.6,14.3c-0.6,1.8-13.7,26.3-22.1,43
		c-1.8,4.2-3.6,7.8-4.2,8.9c-1.2,4.2-4.2,9-6,12.5c-1.8,3-3,5.4-4.2,6c-1.2,1.2-7.8,14.9-15.5,15.5c-7.1,0.6-6-0.6-8.4-1.8
		c-3-1.2-7.8-6-7.8-9.6c0-1.8,1.2-6,1.8-10.1c0-1.2,1.2-3.6,1.2-4.8c-0.6-2.4-1.2-8.9-0.6-11.9c0-1.8,1.2-3,1.8-4.8
		c0.6-0.6,2.4-5.4,3-6.6c0-1.8,5.4-19.7,6-22.1c0.6-2.4,7.2-32.2,7.2-33.4c0-0.6,0-11.3,0.6-14.9c0-2.4,1.8-3.6,1.2-10.1v-3
		c-0.6-1.8-4.8-7.2-8.4-8.4c-3-0.6-19.7-2.4-23.9-3.6c-3.6-0.6-32.8-7.8-39.4-8.9c-6.6-1.8-29.8-9.5-33.4-10.1
		c-3-0.6-6.6-1.2-8.9-2.4c-1.2-0.6-4.8-1.2-8.4-3.6c-1.2-1.2-2.4-1.8-3.6-3l-0.6-0.6v-1.8c-1.8-5.4-1.2-10.1,4.8-12.5
		c6.6-2.4,14.3-3.6,15.5-3.6c0.6,0,1.2,0,1.8-0.6c5.4-0.6,19.7-1.2,20.9-1.2c0.6,0,1.2,0.6,3,0c4.2,0,11.4-0.6,13.1-0.6l0.6,0.6
		c1.8,0,3-1.2,4.2-1.2c1.8,0,4.8,0.6,6.6,1.2c1.2,0.6,20.3-0.6,25.1-0.6c4.2,0,20.9,0.6,25.7,0h0.6c1.2-0.6,1.8-0.6,3-1.8
		c1.2-1.2,1.8-2.4,1.8-3c3-4.8-2.4-13.1-5.4-18.5c-1.2-2.4-1.8-3.6-2.4-4.2c0,0,0-0.6-0.6-0.6c-1.2-3.6-7.8-17.9-8.9-21.5h-0.6
		c-1.2-1.8-13.7-21.5-14.9-22.7c-0.6-0.6-26.8-27.5-26.2-36.4C1280.8,49.2,1284.3,48,1286.1,45L1286.1,45z M1347,174.5
		c-1.2,1.8,0.6,2.4,0.6,3c-0.6,0.6-1.8,0-3,0c0,0-0.6,0-0.6,0.6c0,0.6,2.4,0.6,3.6,1.8c0.6,0.6,1.2,1.8,1.8,2.4
		c0.6,0.6,1.8,0.6,2.4,0.6c1.8,1.2,2.4-2.4,3.6-3.6c1.8-1.2,1.8-2.4,0-1.8c-1.2,0-3-2.4-4.2-3C1350,173.3,1349.4,173.3,1347,174.5
		L1347,174.5z M1279.6,173.9c-0.6-1.2-1.8-2.4-3-2.4c-1.2,0-0.6,3-3,3c-1.2,0.6,0.6,6,2.4,6.6c1.2,0.6,1.8,0.6,3,0
		c1.2-0.6-3-2.4-2.4-4.2c1.2-2.4,4.2-1.8,3.6-2.4L1279.6,173.9L1279.6,173.9z M1247.3,175.1c-1.8,1.2-1.2,2.4-1.2,3.6
		c0,1.8,3,1.2,6,0.6c2.4-0.6,1.8-0.6,0.6-3.6C1251.5,172.1,1249.1,174.5,1247.3,175.1L1247.3,175.1z M1228.3,184
		c2.4,0-2.4-5.4-0.6-6c0.6-1.2,3.6,4.2,4.2,4.2c1.2,0,1.8-1.2,2.4-4.2c-0.1-1.7-0.9-3.3-2.4-4.2c-1.8-2.4-3-2.4-3.6-2.4
		c-1.8-0.6-1.2-0.6-1.8-1.8c-0.6-1.2-2.4,0-2.4,1.2c-0.6,1.2,3.6,2.4,2.4,3c-1.2,0-5.4-1.2-6.6-0.6c-1.8,0.6-1.2,1.8-0.6,3.6
		c0,1.2-0.6,1.2-1.2,1.8l-0.6,0.6c0,1.8,1.8,3,3,3c1.2,0-0.6-3.6,0-4.2c0.6-0.6,1.8,0.6,2.4,1.8C1224.1,181.1,1225.9,184,1228.3,184
		L1228.3,184z M1400.7,185.8c-0.6-0.6-2.4-1.8-3.6-1.8h-1.2c-0.6,0.6,0.6,1.8,0.6,2.4c0,0.6-0.6,2.4,0,2.4c0.6,0,1.8,0,3-0.6
		C1400.7,187.6,1401.3,186.4,1400.7,185.8L1400.7,185.8z M1320.1,184c0.6-0.6,2.4-3.6,1.2-7.2c-0.6-3-1.8-2.4-3.6-1.8
		c0.6,3-3.6,7.2-3,7.2c0.6,0.6,4.2-0.6,4.2-0.6s-1.2,1.2-1.2,2.4v0.6C1317.7,184.6,1318.9,184.6,1320.1,184z M1304.6,184
		c0.6-1.8,0.6-7.2,0.6-7.8c0-1.8,1.2-1.8,2.4-1.8h1.2c1.2,0,2.4,1.2,4.2,0c1.2-1.2,3-2.4,0.6-3c-1.8,0-3,1.2-4.2,0.6h-0.6
		c-2.4,0-3-3-3.6-2.4c-1.2,0.6-2.4,5.4-3.6,6.6c-2.4,1.2-3,3-3,4.2c-0.6,1.2-0.6,2.4,0,3c0,0.6-0.6,0.6,0,0.6c0,0.6,0,0.6,0.6,0.6
		v0.6c0.6,0.6,4.2,0,4.8,0C1304,185.2,1304.6,184.6,1304.6,184L1304.6,184z M1289.7,184l6-6c3-3.6-1.8-6.6-1.2-7.2
		c0.6-0.6,1.2-1.2,0.6-1.8c0-0.6-1.8-1.2-4.2,1.2c-1.8,1.8-1.2,4.8-1.8,5.4c-1.2,1.2-3.6,3-4.2,3.6c0,1.2,1.2,4.8,1.2,4.8
		c0.6,0.6,1.2,1.2,1.2,1.8C1287.3,185.8,1288.5,185.2,1289.7,184L1289.7,184z M1240.8,185.2c0.6-0.6,0-1.2,0-1.2
		c-0.6-0.6-1.2-1.2-1.2-1.8c0-1.2,1.2-5.4,1.2-6c-0.6-1.8-3-4.2-5.4-4.2c-1.2,0-0.6,2.4-0.6,3.6h0.6c-0.6,1.2,2.4,4.8,1.8,5.4
		c-0.6,1.2-1.8-0.6-1.8,0.6v2.4l0.6,1.2C1237.5,185.8,1239.3,185.8,1240.8,185.2L1240.8,185.2z M1382.8,212.1c-1.2,0.6-1.2,1.8,0,3
		c0.6,0.6,1.8,0.6,1.8,1.2l0.6,0.6c0.6,0.6,1.8,0,1.8-1.2c-0.6-1.2,0-3.6-1.2-3.6C1385.8,212.7,1383.4,211.5,1382.8,212.1z
		 M1395.9,227.6h-0.6c0-0.6-1.8-0.6-1.8-1.2s4.2-2.4,2.4-3c-1.8-0.6-1.8-2.4-2.4-2.4c-0.6,0-2.4-1.2-2.4-0.6c0,1.2,0.6,1.8-0.6,2.4
		c-1.8,0-6-2.4-4.8,0c1.2,1.2,2.4,3.6,2.4,4.8c0,1.2,0,3,0.6,3c1.2,0.6,4.8,1.2,6.6,0C1396.5,230,1395.9,228.2,1395.9,227.6
		L1395.9,227.6z M1518.2,301.6c-1.2,0-1.2,1.2-1.2,3v0.6c0.6,0.6,1.8-0.6,2.4-1.2C1520.6,302.8,1519.4,302.2,1518.2,301.6
		L1518.2,301.6z M1359.5,272.4c-1.8,1.2-3,2.4-3,3c-0.6,0.6-1.2,2.4,1.2,2.4c1.8,0,8.4,6.6,9.6,6.6c1.8,0-1.2-4.2-0.6-5.4
		c0.6-0.6,6,3.6,10.1,2.4c4.2-1.8,0-5.4-0.6-6c-1.2-1.2-10.1,1.8-10.7,1.2c0-1.2,1.2-2.4,0-4.2
		C1364.9,271.8,1361.3,271.8,1359.5,272.4L1359.5,272.4z M1373.2,270v2.4c1.2,0,4.8,2.4,5.4,0l0.6-1.2c0-0.6,0-1.2-0.6-1.2
		C1376.8,268.8,1373.2,269.4,1373.2,270z M1369.7,258.6c-1.2,1.2,3.6,1.2,3.6,1.8c0.6,1.2-3.6,1.2-3.6,2.4c0.6,0,1.8,0,3,0.6
		c1.2,0,2.4,0.6,2.4,0.6c1.8,0,3.6,3.6,5.4,2.4c1.8-1.2-0.6-2.4-2.4-4.2c-1.2-1.2,1.2-2.4-0.6-3.6
		C1376.2,258,1371.5,257.4,1369.7,258.6L1369.7,258.6z M1361.3,316.5c1.8-5.4,4.2-10.1,5.4-11.9c2.4-3.6,0-10.1,0.6-10.7
		c0.6-0.6,1.8,1.2,3-1.2c1.2-2.4-3-6.6-3.6-6.6c-1.2,0,0,1.8-1.2,3c-1.8,0.6-2.4-1.8-3.6,0c-2.4,1.2-8.9-2.4-8.9,0
		c0,7.2,10.1,6,10.7,7.8c1.2,1.2-1.8,3.6-2.4,4.2c-0.6,0-6-0.6-7.2-1.2c-1.8-0.6-4.8,0-4.8,2.4c-0.6,1.8,1.8,6.6,5.4,6.6
		c3,0,3.6,3.6,3.6,6l-0.6,4.8c0,1.2-2.4-1.2-3-0.6c0,0-0.6-2.4-1.8-4.2c-1.2-1.2-1.8-1.8-2.4-1.8s-1.8,0.6-3,1.8
		c-2.4,1.8-4.2,4.2-4.2,5.4c0,6.6,9.6,7.1,9.6,7.1c0,1.2-2.4,4.2-3.6,3.6c-1.2-0.6-7.8-10.1-10.1-1.2c-0.6,1.8,3,5.4,3.6,6.6
		c0.6,0.6,0.6,0.6,0.6,1.2c0,1.2-5.4,3-7.8,7.8c-0.8,1.9-0.3,4,1.2,5.4l0.6,0.6c-0.6,0-3.6,1.8-4.8,3c-0.6,0-1.2,0.6-0.6,0.6
		c4.2,0.6,6.6-3,10.7-7.2c1.2-1.2,6-5.4,8.4-10.7c3-4.2,4.2-10.1,4.8-11.9C1357.1,323.1,1360.7,317.7,1361.3,316.5L1361.3,316.5z
		 M1328.5,346.3c-0.6,0.6,0,1.2,0,1.8c0,0.6,1.2,1.2,1.2,1.2c1.8,0,0.6,0.6,1.8,0.6c1.2,0,1.2-0.6,1.2-1.8c0-1.8-0.6-0.6-1.2-1.2
		c-0.6-0.6,0-0.6-0.6-0.6C1330.3,345.7,1328.5,346.3,1328.5,346.3z M1338,110.1c0-0.6-0.6-1.2-0.6-1.2c-0.6,0-0.6,0.6-1.2,1.2
		c-0.6,0.6-0.6,0.6-1.2,0.6c0,0,0,4.2,0.6,4.2l1.2-0.6h0.6c0.6,0,0.6-2.4,0.6-2.4c0.6-0.6,1.2-1.2,1.2-1.2
		C1339.2,110.1,1338,110.1,1338,110.1z"/>
</g>
</svg>
